<?xml version="1.0" encoding="iso-8859-1"?>
<!-- Generator: Adobe Illustrator 19.0.0, SVG Export Plug-In . SVG Version: 6.00 Build 0)  -->
<svg version="1.1" id="Capa_1" xmlns="http://www.w3.org/2000/svg" xmlns:xlink="http://www.w3.org/1999/xlink" x="0px" y="0px"
	 viewBox="0 0 511.995 511.995" style="enable-background:new 0 0 511.995 511.995;" xml:space="preserve">
<g>
	<g>
		<rect x="249.431" y="0.934" width="15.004" height="52.513"/>
	</g>
</g>
<g>
	<g>
		<rect y="248.497" width="54.383" height="15.004"/>
	</g>
</g>
<g>
	<g>
		<rect x="249.451" y="458.548" width="15.004" height="52.513"/>
	</g>
</g>
<g>
	<g>
		<rect x="457.612" y="248.497" width="54.383" height="15.004"/>
	</g>
</g>
<g>
	<g>
		
			<rect x="169.054" y="54.433" transform="matrix(0.9239 -0.3827 0.3827 0.9239 -10.2621 72.2814)" width="15.004" height="15.004"/>
	</g>
</g>
<g>
	<g>
		
			<rect x="100.91" y="99.974" transform="matrix(0.7071 -0.7071 0.7071 0.7071 -44.2439 108.1377)" width="15.003" height="15.003"/>
	</g>
</g>
<g>
	<g>
		
			<rect x="55.37" y="168.111" transform="matrix(0.3827 -0.9239 0.9239 0.3827 -123.4337 166.4939)" width="15.004" height="15.004"/>
	</g>
</g>
<g>
	<g>
		
			<rect x="55.374" y="328.868" transform="matrix(0.9239 -0.3827 0.3827 0.9239 -123.9388 49.6676)" width="15.004" height="15.004"/>
	</g>
</g>
<g>
	<g>
		
			<rect x="100.912" y="397.025" transform="matrix(0.7071 -0.7071 0.7071 0.7071 -254.2895 195.142)" width="15.004" height="15.004"/>
	</g>
</g>
<g>
	<g>
		
			<rect x="169.059" y="442.545" transform="matrix(0.3827 -0.9239 0.9239 0.3827 -306.7946 440.9396)" width="15.004" height="15.004"/>
	</g>
</g>
<g>
	<g>
		
			<rect x="329.831" y="442.552" transform="matrix(0.9239 -0.3827 0.3827 0.9239 -146.5521 163.3533)" width="15.004" height="15.004"/>
	</g>
</g>
<g>
	<g>
		
			<rect x="397.963" y="397.023" transform="matrix(0.7071 -0.7071 0.7071 0.7071 -167.2847 405.1893)" width="15.004" height="15.004"/>
	</g>
</g>
<g>
	<g>
		
			<rect x="443.483" y="328.873" transform="matrix(0.3827 -0.9239 0.9239 0.3827 -32.3724 624.3006)" width="15.004" height="15.004"/>
	</g>
</g>
<g>
	<g>
		
			<rect x="443.505" y="168.125" transform="matrix(0.9239 -0.3827 0.3827 0.9239 -32.8785 185.9665)" width="15.004" height="15.004"/>
	</g>
</g>
<g>
	<g>
		
			<rect x="329.83" y="54.439" transform="matrix(0.3827 -0.9239 0.9239 0.3827 151.0128 349.8896)" width="15.004" height="15.004"/>
	</g>
</g>
<g>
	<g>
		<rect x="397.961" y="99.973" transform="matrix(0.7071 -0.7071 0.7071 0.7071 42.7615 318.184)" width="15.004" height="15.004"/>
	</g>
</g>
<g>
	<g>
		<polygon points="164.165,217.924 164.165,240.43 179.169,240.43 179.169,232.928 201.674,232.928 201.674,247.932 
			186.671,247.932 186.671,262.935 201.674,262.935 201.674,277.939 179.169,277.939 179.169,270.437 164.165,270.437 
			164.165,292.943 216.678,292.943 216.678,217.924 		"/>
	</g>
</g>
<g>
	<g>
		<path d="M284.194,238.554v-20.63h-52.513v75.018h52.513v-45.011h-37.509v-15.004h22.505v5.626H284.194z M269.191,262.935v15.004
			h-22.505v-15.004H269.191z"/>
	</g>
</g>
<g>
	<g>
		<path d="M299.198,217.924v75.018h52.513v-75.018H299.198z M336.707,277.939h-22.505v-45.011h22.505V277.939z"/>
	</g>
</g>
<g>
	<g>
		<rect x="362.959" y="217.919" width="15.004" height="15.004"/>
	</g>
</g>
<g>
	<g>
		<rect x="251.311" y="158.475" width="15.004" height="15.004"/>
	</g>
</g>
<g>
	<g>
		<rect x="251.311" y="331.017" width="15.004" height="15.004"/>
	</g>
</g>
<g>
</g>
<g>
</g>
<g>
</g>
<g>
</g>
<g>
</g>
<g>
</g>
<g>
</g>
<g>
</g>
<g>
</g>
<g>
</g>
<g>
</g>
<g>
</g>
<g>
</g>
<g>
</g>
<g>
</g>
</svg>
