<?xml version="1.0" encoding="iso-8859-1"?>
<!-- Generator: Adobe Illustrator 19.0.0, SVG Export Plug-In . SVG Version: 6.00 Build 0)  -->
<svg version="1.1" id="Layer_1" xmlns="http://www.w3.org/2000/svg" xmlns:xlink="http://www.w3.org/1999/xlink" x="0px" y="0px"
	 viewBox="0 0 512 512" style="enable-background:new 0 0 512 512;" xml:space="preserve">
<g>
	<g>
		<path d="M460.875,290.052H264.536V85.177h42.682c3.235,0,6.189-1.827,7.64-4.721c1.451-2.894,1.135-6.351-0.811-8.938
			L262.829,3.227c-3.218-4.302-10.44-4.302-13.658,0l-51.219,68.292c-1.946,2.587-2.254,6.044-0.811,8.938
			c1.443,2.894,4.405,4.721,7.64,4.721h42.682v204.875H51.125c-4.712,0-8.536,3.824-8.536,8.536s3.824,8.536,8.536,8.536h196.339
			v196.339c0,4.712,3.824,8.536,8.536,8.536c4.712,0,8.536-3.824,8.536-8.536V307.125h196.339c4.712,0,8.536-3.824,8.536-8.536
			S465.587,290.052,460.875,290.052z M221.854,68.104L256,22.579l34.146,45.525H221.854z"/>
	</g>
</g>
<g>
	<g>
		<path d="M221.854,324.198H85.271c-4.712,0-8.536,3.824-8.536,8.536c0,4.712,3.824,8.536,8.536,8.536h128.047v128.047
			c0,4.712,3.824,8.536,8.536,8.536c4.712,0,8.536-3.824,8.536-8.536V332.734C230.391,328.022,226.566,324.198,221.854,324.198z"/>
	</g>
</g>
<g>
	<g>
		<path d="M187.708,358.344h-68.292c-4.712,0-8.536,3.824-8.536,8.536c0,4.712,3.824,8.536,8.536,8.536h59.755v59.755
			c0,4.712,3.824,8.536,8.536,8.536c4.712,0,8.536-3.824,8.536-8.536V366.88C196.245,362.168,192.42,358.344,187.708,358.344z"/>
	</g>
</g>
<g>
	<g>
		<path d="M426.729,324.198H290.146c-4.712,0-8.536,3.824-8.536,8.536v136.583c0,4.712,3.824,8.536,8.536,8.536
			c4.712,0,8.536-3.824,8.536-8.536V341.271h128.047c4.712,0,8.536-3.824,8.536-8.536
			C435.266,328.022,431.441,324.198,426.729,324.198z"/>
	</g>
</g>
<g>
	<g>
		<path d="M392.583,358.344h-68.292c-4.712,0-8.536,3.824-8.536,8.536v68.292c0,4.712,3.824,8.536,8.536,8.536
			c4.712,0,8.536-3.824,8.536-8.536v-59.755h59.755c4.712,0,8.536-3.824,8.536-8.536
			C401.12,362.168,397.296,358.344,392.583,358.344z"/>
	</g>
</g>
<g>
	<g>
		<path d="M426.729,255.906H298.682V127.859c0-4.712-3.824-8.536-8.536-8.536c-4.712,0-8.536,3.824-8.536,8.536v136.583
			c0,4.712,3.824,8.536,8.536,8.536h136.583c4.712,0,8.536-3.824,8.536-8.536C435.266,259.73,431.441,255.906,426.729,255.906z"/>
	</g>
</g>
<g>
	<g>
		<path d="M392.583,221.76h-59.755v-59.755c0-4.712-3.824-8.536-8.536-8.536c-4.712,0-8.536,3.824-8.536,8.536v68.292
			c0,4.712,3.824,8.536,8.536,8.536h68.292c4.712,0,8.536-3.824,8.536-8.536C401.12,225.585,397.296,221.76,392.583,221.76z"/>
	</g>
</g>
<g>
	<g>
		<path d="M221.854,119.323c-4.712,0-8.536,3.824-8.536,8.536v128.047H85.271c-4.712,0-8.536,3.824-8.536,8.536
			c0,4.712,3.824,8.536,8.536,8.536h136.583c4.712,0,8.536-3.824,8.536-8.536V127.859
			C230.391,123.147,226.566,119.323,221.854,119.323z"/>
	</g>
</g>
<g>
	<g>
		<path d="M187.708,153.469c-4.712,0-8.536,3.824-8.536,8.536v59.755h-59.755c-4.712,0-8.536,3.824-8.536,8.536
			c0,4.712,3.824,8.536,8.536,8.536h68.292c4.712,0,8.536-3.824,8.536-8.536v-68.292
			C196.245,157.293,192.42,153.469,187.708,153.469z"/>
	</g>
</g>
<g>
</g>
<g>
</g>
<g>
</g>
<g>
</g>
<g>
</g>
<g>
</g>
<g>
</g>
<g>
</g>
<g>
</g>
<g>
</g>
<g>
</g>
<g>
</g>
<g>
</g>
<g>
</g>
<g>
</g>
</svg>
