<svg xmlns="http://www.w3.org/2000/svg" width="15.433" height="15.522" viewBox="0 0 15.433 15.522"><g transform="translate(-1.765)"><g transform="translate(1.765)"><g transform="translate(0)"><path d="M16.915,13.863,12.267,9.189a5.777,5.777,0,1,0-4.715,2.453A5.734,5.734,0,0,0,10.9,10.563l4.648,4.675a.962.962,0,0,0,1.366,0A.976.976,0,0,0,16.915,13.863Zm-6.22-5.8-.379.536-.534.382a3.814,3.814,0,0,1-2.23.719A3.883,3.883,0,1,1,10.7,8.064Z" transform="translate(-1.765)" fill="#fff"/></g></g></g></svg>